<svg width="20" height="20" viewBox="0 0 20 20" fill="none" xmlns="http://www.w3.org/2000/svg">
<g clip-path="url(#clip0_66_842)">
<path fill-rule="evenodd" clip-rule="evenodd" d="M1.25004 0.0735158C1.13188 0.11168 0.980196 0.171602 0.91297 0.206719C0.709845 0.312813 0.361368 0.656953 0.239376 0.871875C-0.0182805 1.32586 3.98396e-05 0.626758 3.98396e-05 10.0036C3.98396e-05 18.2412 0.00238359 18.5161 0.0740633 18.7464C0.251524 19.3168 0.713555 19.7709 1.28645 19.9381C1.47723 19.9938 2.35504 20 10.003 20C18.3627 20 18.5117 19.9987 18.7573 19.9228C19.3124 19.7514 19.7702 19.2912 19.9241 18.75C19.9516 18.6533 19.9888 18.5575 20.0066 18.5371C20.051 18.4864 20.0487 1.3957 20.0043 1.42313C19.9852 1.43496 19.9587 1.38766 19.9454 1.31801C19.9021 1.09121 19.7432 0.805352 19.5323 0.574766C19.2941 0.314297 19.0794 0.177617 18.7452 0.0735939C18.5165 0.00242201 18.2273 7.8266e-05 9.9868 0.00210952C1.93531 0.0041017 1.45301 0.00804701 1.25004 0.0735158ZM1.60824 1.19984C1.47508 1.22523 1.22734 1.49035 1.19754 1.63941C1.18344 1.70988 1.17191 3.02223 1.17191 4.55566V7.34375H3.51242H5.85297L5.86594 6.66289C5.88035 5.90848 5.89461 5.86227 6.17152 5.67383C6.42957 5.4982 6.82359 5.60672 6.98762 5.89859C7.06266 6.03211 7.07035 6.10613 7.07035 6.69406V7.34234L10.1144 7.35281C13.1398 7.3632 13.1591 7.36379 13.2687 7.44551C13.6259 7.7118 13.6086 8.23199 13.2352 8.45703C13.1216 8.52547 13.0221 8.53676 12.4317 8.54816L11.7579 8.56113V11.1434V13.7256L11.6718 13.8513C11.4902 14.1162 11.4651 14.1211 10.2861 14.1211C9.27016 14.1211 9.21977 14.1176 9.11422 14.0394C8.72051 13.7477 8.73539 13.2146 9.14305 13.0066C9.27504 12.9393 9.3743 12.9297 9.93988 12.9297H10.586V10.7422V8.55469H5.87895H1.17191V10.7422V12.9297H2.98957C4.46223 12.9297 4.83109 12.9401 4.93293 12.9844C5.08246 13.0495 7.71492 15.3778 7.84184 15.5571C7.94641 15.705 7.9607 15.9987 7.87172 16.1707C7.74461 16.4166 7.4 16.5421 7.14645 16.435C7.07238 16.4037 6.44609 15.8746 5.75473 15.2593L4.4977 14.1406H2.83352H1.16938L1.18039 16.2793C1.1927 18.6577 1.17684 18.5195 1.46027 18.7217L1.58207 18.8086L9.94223 18.8187L18.3024 18.8288L18.4774 18.7406C18.6054 18.676 18.6759 18.6056 18.7403 18.478L18.8282 18.3037V13.4317V8.55965L17.8614 8.54738C16.947 8.53582 16.8871 8.53055 16.7579 8.44996C16.3894 8.22039 16.3759 7.71062 16.7313 7.44551C16.8355 7.36777 16.8957 7.36266 17.8358 7.35164L18.8301 7.33996L18.8194 4.46102L18.8086 1.58203L18.7218 1.46023C18.674 1.39324 18.5861 1.30535 18.5264 1.26492C18.4217 1.19391 18.2258 1.19105 12.7466 1.18113L7.07531 1.17086L7.06305 1.86473C7.05152 2.51848 7.04555 2.56598 6.95984 2.68613C6.70809 3.0391 6.18031 3.01965 5.95707 2.64918C5.88863 2.53559 5.87734 2.43609 5.86594 1.8457L5.85297 1.17188L3.77609 1.17719C2.63383 1.18012 1.65828 1.19031 1.60824 1.19984ZM0.0192195 10C0.0192195 14.7158 0.0237898 16.645 0.0293367 14.2871C0.0348836 11.9292 0.0348836 8.07082 0.0293367 5.71289C0.0237898 3.355 0.0192195 5.28418 0.0192195 10Z" fill="white"/>
</g>
<defs>
<clipPath id="clip0_66_842">
<rect width="20" height="20" fill="white"/>
</clipPath>
</defs>
</svg>
