<svg width="60" height="60" viewBox="0 0 60 60" fill="none" xmlns="http://www.w3.org/2000/svg">
<rect width="60" height="60" rx="15" fill="white"/>
<g clip-path="url(#clip0_455_30589)">
<path d="M35.8334 30.0003C35.8334 30.4606 35.4603 30.8337 35.0001 30.8337H30.8334V35.0003C30.8334 35.4606 30.4603 35.8337 30.0001 35.8337C29.5398 35.8337 29.1667 35.4606 29.1667 35.0003V30.8337H25.0001C24.5398 30.8337 24.1667 30.4606 24.1667 30.0003C24.1667 29.5401 24.5398 29.167 25.0001 29.167H29.1667V25.0003C29.1667 24.5401 29.5398 24.167 30.0001 24.167C30.4603 24.167 30.8334 24.5401 30.8334 25.0003V29.167H35.0001C35.4603 29.167 35.8334 29.5401 35.8334 30.0003Z" fill="#A3A9B5"/>
</g>
<defs>
<clipPath id="clip0_455_30589">
<rect width="20" height="20" fill="white" transform="translate(20 20)"/>
</clipPath>
</defs>
</svg>
