<svg width="18" height="18" viewBox="0 0 18 18" fill="none" xmlns="http://www.w3.org/2000/svg">
<path d="M8.02109 13.701H9.68775V12.0343H8.02109V13.701ZM8.85442 0.367676C4.25442 0.367676 0.521088 4.10101 0.521088 8.70101C0.521088 13.301 4.25442 17.0343 8.85442 17.0343C13.4544 17.0343 17.1878 13.301 17.1878 8.70101C17.1878 4.10101 13.4544 0.367676 8.85442 0.367676ZM8.85442 15.3677C5.17942 15.3677 2.18775 12.376 2.18775 8.70101C2.18775 5.02601 5.17942 2.03434 8.85442 2.03434C12.5294 2.03434 15.5211 5.02601 15.5211 8.70101C15.5211 12.376 12.5294 15.3677 8.85442 15.3677ZM8.85442 3.70101C7.01275 3.70101 5.52109 5.19268 5.52109 7.03434H7.18775C7.18775 6.11768 7.93775 5.36768 8.85442 5.36768C9.77109 5.36768 10.5211 6.11768 10.5211 7.03434C10.5211 8.70101 8.02109 8.49268 8.02109 11.201H9.68775C9.68775 9.32601 12.1878 9.11768 12.1878 7.03434C12.1878 5.19268 10.6961 3.70101 8.85442 3.70101Z" fill="#A3A9B5"/>
</svg>
