<svg width="51" height="51" viewBox="0 0 51 51" fill="none" xmlns="http://www.w3.org/2000/svg">
<g clip-path="url(#clip0_101_1655)">
<path d="M40.0837 25.5001C40.0837 26.6507 39.1509 27.5834 38.0003 27.5834H27.5837V38.0001C27.5837 39.1507 26.6509 40.0834 25.5003 40.0834V40.0834C24.3497 40.0834 23.417 39.1507 23.417 38.0001V27.5834H13.0003C11.8497 27.5834 10.917 26.6507 10.917 25.5001V25.5001C10.917 24.3495 11.8497 23.4167 13.0003 23.4167H23.417V13.0001C23.417 11.8495 24.3497 10.9167 25.5003 10.9167V10.9167C26.6509 10.9167 27.5837 11.8495 27.5837 13.0001V23.4167H38.0003C39.1509 23.4167 40.0837 24.3495 40.0837 25.5001V25.5001Z" fill="#A3A9B5"/>
</g>
<defs>
<clipPath id="clip0_101_1655">
<rect width="50" height="50" fill="white" transform="translate(0.5 0.5)"/>
</clipPath>
</defs>
</svg>
