<svg width="12" height="13" viewBox="0 0 12 13" fill="none" xmlns="http://www.w3.org/2000/svg">
<path d="M11.8327 6.49935C11.8327 6.95959 11.4596 7.33268 10.9993 7.33268H6.83268V11.4993C6.83268 11.9596 6.45959 12.3327 5.99935 12.3327C5.53911 12.3327 5.16602 11.9596 5.16602 11.4993V7.33268H0.999349C0.539112 7.33268 0.166016 6.95959 0.166016 6.49935C0.166016 6.03911 0.539112 5.66602 0.999349 5.66602H5.16602V1.49935C5.16602 1.03911 5.53911 0.666016 5.99935 0.666016C6.45959 0.666016 6.83268 1.03911 6.83268 1.49935V5.66602H10.9993C11.4596 5.66602 11.8327 6.03911 11.8327 6.49935Z" fill="#A3A9B5"/>
</svg>
