<svg width="10" height="9" viewBox="0 0 10 9" fill="none" xmlns="http://www.w3.org/2000/svg">
<path d="M9.12479 8.62437C8.79935 8.94981 8.27171 8.94981 7.94628 8.62437L5 5.67809L2.05372 8.62437C1.72829 8.94981 1.20065 8.94981 0.87521 8.62437C0.549773 8.29893 0.549774 7.77129 0.875211 7.44586L3.82149 4.49958L0.87521 1.5533C0.549773 1.22786 0.549773 0.700227 0.87521 0.37479C1.20065 0.0493525 1.72828 0.0493527 2.05372 0.37479L5 3.32107L7.94628 0.37479C8.27172 0.0493526 8.79935 0.0493525 9.12479 0.37479C9.45023 0.700227 9.45023 1.22786 9.12479 1.5533L6.17851 4.49958L9.12479 7.44586C9.45023 7.77129 9.45023 8.29893 9.12479 8.62437Z" fill="#A3A9B5"/>
</svg>
