<svg width="17" height="16" viewBox="0 0 17 16" fill="none" xmlns="http://www.w3.org/2000/svg">
<g clip-path="url(#clip0_249_32819)">
<path d="M7.71689 11.7604H9.05022V10.4271H7.71689V11.7604ZM8.38356 1.09375C4.70356 1.09375 1.71689 4.08042 1.71689 7.76042C1.71689 11.4404 4.70356 14.4271 8.38356 14.4271C12.0636 14.4271 15.0502 11.4404 15.0502 7.76042C15.0502 4.08042 12.0636 1.09375 8.38356 1.09375ZM8.38356 13.0938C5.44356 13.0938 3.05022 10.7004 3.05022 7.76042C3.05022 4.82042 5.44356 2.42708 8.38356 2.42708C11.3236 2.42708 13.7169 4.82042 13.7169 7.76042C13.7169 10.7004 11.3236 13.0938 8.38356 13.0938ZM8.38356 3.76042C6.91022 3.76042 5.71689 4.95375 5.71689 6.42708H7.05022C7.05022 5.69375 7.65022 5.09375 8.38356 5.09375C9.11689 5.09375 9.71689 5.69375 9.71689 6.42708C9.71689 7.76042 7.71689 7.59375 7.71689 9.76042H9.05022C9.05022 8.26042 11.0502 8.09375 11.0502 6.42708C11.0502 4.95375 9.85689 3.76042 8.38356 3.76042Z" fill="#A3A9B5"/>
</g>
<defs>
<clipPath id="clip0_249_32819">
<rect width="16" height="16" fill="white" transform="translate(0.5)"/>
</clipPath>
</defs>
</svg>
