<svg width="20" height="20" viewBox="0 0 20 20" fill="none" xmlns="http://www.w3.org/2000/svg">
<g clip-path="url(#clip0_53_216)">
<path d="M2.5 3.33331V0.833313H4.16667V3.33331H6.66667V4.99998H4.16667V7.49998H2.5V4.99998H0V3.33331H2.5ZM5 8.33331V5.83331H7.5V3.33331H13.3333L14.8583 4.99998H17.5C18.4167 4.99998 19.1667 5.74998 19.1667 6.66665V16.6666C19.1667 17.5833 18.4167 18.3333 17.5 18.3333H4.16667C3.25 18.3333 2.5 17.5833 2.5 16.6666V8.33331H5ZM10.8333 15.8333C13.1333 15.8333 15 13.9666 15 11.6666C15 9.36665 13.1333 7.49998 10.8333 7.49998C8.53333 7.49998 6.66667 9.36665 6.66667 11.6666C6.66667 13.9666 8.53333 15.8333 10.8333 15.8333ZM8.16667 11.6666C8.16667 13.1416 9.35833 14.3333 10.8333 14.3333C12.3083 14.3333 13.5 13.1416 13.5 11.6666C13.5 10.1916 12.3083 8.99998 10.8333 8.99998C9.35833 8.99998 8.16667 10.1916 8.16667 11.6666Z" fill="#5D6069"/>
</g>
<defs>
<clipPath id="clip0_53_216">
<rect width="20" height="20" fill="white"/>
</clipPath>
</defs>
</svg>
