<svg width="20" height="20" viewBox="0 0 20 20" fill="none" xmlns="http://www.w3.org/2000/svg">
<g clip-path="url(#clip0_53_208)">
<path d="M9.85444 5.53426C12.1544 5.53426 14.0211 7.40093 14.0211 9.70093C14.0211 10.2426 13.9128 10.7509 13.7211 11.2259L16.1544 13.6593C17.4128 12.6093 18.4044 11.2509 19.0128 9.70093C17.5711 6.04259 14.0128 3.45093 9.84611 3.45093C8.67944 3.45093 7.56277 3.65926 6.52944 4.03426L8.32944 5.83426C8.80444 5.64259 9.31277 5.53426 9.85444 5.53426ZM1.52111 3.25926L3.42111 5.15926L3.80444 5.54259C2.42111 6.61759 1.33777 8.05093 0.687775 9.70093C2.12944 13.3593 5.68777 15.9509 9.85444 15.9509C11.1461 15.9509 12.3794 15.7009 13.5044 15.2509L13.8544 15.6009L16.2961 18.0343L17.3544 16.9759L2.57944 2.20093L1.52111 3.25926ZM6.12944 7.86759L7.42111 9.15926C7.37944 9.33426 7.35444 9.51759 7.35444 9.70093C7.35444 11.0843 8.47111 12.2009 9.85444 12.2009C10.0378 12.2009 10.2211 12.1759 10.3961 12.1343L11.6878 13.4259C11.1294 13.7009 10.5128 13.8676 9.85444 13.8676C7.55444 13.8676 5.68777 12.0009 5.68777 9.70093C5.68777 9.04259 5.85444 8.42593 6.12944 7.86759ZM9.72111 7.2176L12.3461 9.84259L12.3628 9.70926C12.3628 8.32593 11.2461 7.20926 9.86277 7.20926L9.72111 7.2176Z" fill="#5D6069"/>
</g>
<defs>
<clipPath id="clip0_53_208">
<rect width="20" height="20" fill="white"/>
</clipPath>
</defs>
</svg>
