<svg width="61" height="60" viewBox="0 0 61 60" fill="none" xmlns="http://www.w3.org/2000/svg">
<rect x="0.154297" width="60" height="60" rx="15" fill="#ECEBF1"/>
<g clip-path="url(#clip0_83_15492)">
<path d="M35.988 30.0003C35.988 30.4606 35.6149 30.8337 35.1546 30.8337H30.988V35.0003C30.988 35.4606 30.6149 35.8337 30.1546 35.8337C29.6944 35.8337 29.3213 35.4606 29.3213 35.0003V30.8337H25.1546C24.6944 30.8337 24.3213 30.4606 24.3213 30.0003C24.3213 29.5401 24.6944 29.167 25.1546 29.167H29.3213V25.0003C29.3213 24.5401 29.6944 24.167 30.1546 24.167C30.6149 24.167 30.988 24.5401 30.988 25.0003V29.167H35.1546C35.6149 29.167 35.988 29.5401 35.988 30.0003Z" fill="#5D6069"/>
</g>
<defs>
<clipPath id="clip0_83_15492">
<rect width="20" height="20" fill="white" transform="translate(20.1543 20)"/>
</clipPath>
</defs>
</svg>
