<svg width="20" height="20" viewBox="0 0 20 20" fill="none" xmlns="http://www.w3.org/2000/svg">
<path fill-rule="evenodd" clip-rule="evenodd" d="M9.57043 2.00696C9.07871 2.19177 3.28496 4.78524 3.2132 4.85266C3.07102 4.98626 3.02793 5.2122 3.10582 5.41614C3.18859 5.63286 3.005 5.52743 6.64074 7.44626C9.28348 8.84106 9.60824 9.00262 9.76574 9.00106C9.91609 8.99958 10.3654 8.79138 12.8712 7.56204C17.0507 5.51161 16.7908 5.64884 16.8814 5.44407C16.9797 5.22173 16.9455 5.02298 16.7812 4.86196C16.6874 4.77012 15.906 4.43548 13.3009 3.37165C11.4532 2.61712 9.88879 1.98981 9.82434 1.97766C9.75988 1.96552 9.64563 1.97872 9.57043 2.00696ZM7.31457 4.17235C5.97715 4.76513 4.88293 5.25973 4.88293 5.27153C4.88293 5.29434 9.5484 7.76864 9.70344 7.82805C9.78066 7.85763 10.2098 7.66012 12.4172 6.57907C13.8593 5.87282 15.0392 5.2852 15.0392 5.27325C15.0392 5.25524 9.90637 3.13688 9.78527 3.10493C9.76379 3.09927 8.65199 3.57958 7.31457 4.17235ZM2.87121 6.34227C2.80676 6.37196 2.71008 6.44384 2.65637 6.502L2.55871 6.60778L2.5484 10.5238L2.53809 14.4399L2.62801 14.5734C2.70301 14.6847 3.22145 14.9819 5.74383 16.3595L8.76965 18.0121L8.97742 17.9967C9.1477 17.9841 9.20762 17.9589 9.30945 17.8571L9.43371 17.7328L9.44363 13.798C9.45316 10.0233 9.45062 9.85841 9.38105 9.74481C9.32289 9.64981 8.7098 9.29981 6.28242 7.97591C4.55434 7.03337 3.19887 6.31747 3.12234 6.30688C3.04867 6.29669 2.93566 6.31259 2.87121 6.34227ZM13.4689 7.95891C10.3752 9.51114 10.1357 9.63845 10.0704 9.76493C10.0041 9.89329 10.0001 10.1213 10.0003 13.7688C10.0004 17.5337 10.0024 17.64 10.0765 17.7615C10.1696 17.9142 10.2881 17.9939 10.4717 18.0274C10.5993 18.0507 10.8971 17.91 13.9288 16.3941C15.9571 15.3798 17.2841 14.6943 17.3439 14.63L17.4415 14.5249L17.4514 10.5925C17.4611 6.79817 17.4588 6.65587 17.3877 6.53977C17.3027 6.40098 17.093 6.28899 16.9181 6.28899C16.8366 6.28899 15.7102 6.83438 13.4689 7.95891ZM13.7208 9.0352L11.0548 10.3708V13.4861C11.0548 15.1996 11.0636 16.6015 11.0745 16.6015C11.0852 16.6015 12.2893 16.0038 13.7502 15.2733L16.4064 13.9451V10.8202C16.4064 9.10145 16.402 7.69622 16.3966 7.69743C16.3913 7.69864 15.1871 8.30063 13.7208 9.0352ZM3.59387 9.10134V10.4749L3.80309 10.3253C4.68574 9.69431 5.73988 8.92227 5.74078 8.90618C5.74172 8.8893 3.72453 7.7761 3.6291 7.74083C3.60859 7.73325 3.59387 8.302 3.59387 9.10134ZM5.18566 10.6533L3.59387 11.8138V12.5326V13.2514L3.72082 13.1556C3.79062 13.103 4.72668 12.4212 5.8009 11.6406C6.87512 10.86 7.79414 10.1906 7.84316 10.1529C7.93223 10.0844 7.93172 10.084 7.41906 9.80302C7.13676 9.64825 6.87687 9.5152 6.8416 9.50727C6.80418 9.49888 6.1148 9.97598 5.18566 10.6533ZM6.23652 12.6543C5.05812 13.5117 4.08844 14.2189 4.0816 14.2257C4.07477 14.2326 4.3216 14.3752 4.63012 14.5426L5.19113 14.847L6.79387 13.6832L8.39664 12.5195L8.39762 11.8066C8.39812 11.4145 8.39414 11.094 8.38879 11.0944C8.38344 11.0949 7.41488 11.7968 6.23652 12.6543ZM7.33902 14.6142C6.77234 15.0252 6.29426 15.3745 6.27656 15.3905C6.25891 15.4066 6.7291 15.684 7.32148 16.007L8.39855 16.5943V15.2307C8.39855 14.4807 8.39199 13.8671 8.38395 13.8671C8.37594 13.8671 7.9057 14.2033 7.33902 14.6142Z" fill="#5D6069"/>
</svg>
