<svg width="20" height="20" viewBox="0 0 20 20" fill="none" xmlns="http://www.w3.org/2000/svg">
<g clip-path="url(#clip0_429_37144)">
<path d="M9.02148 14.701H10.6882V13.0343H9.02148V14.701ZM9.85482 1.36768C5.25482 1.36768 1.52148 5.10101 1.52148 9.70101C1.52148 14.301 5.25482 18.0343 9.85482 18.0343C14.4548 18.0343 18.1882 14.301 18.1882 9.70101C18.1882 5.10101 14.4548 1.36768 9.85482 1.36768ZM9.85482 16.3677C6.17982 16.3677 3.18815 13.376 3.18815 9.70101C3.18815 6.02601 6.17982 3.03434 9.85482 3.03434C13.5298 3.03434 16.5215 6.02601 16.5215 9.70101C16.5215 13.376 13.5298 16.3677 9.85482 16.3677ZM9.85482 4.70101C8.01315 4.70101 6.52148 6.19268 6.52148 8.03434H8.18815C8.18815 7.11768 8.93815 6.36768 9.85482 6.36768C10.7715 6.36768 11.5215 7.11768 11.5215 8.03434C11.5215 9.70101 9.02148 9.49268 9.02148 12.201H10.6882C10.6882 10.326 13.1882 10.1177 13.1882 8.03434C13.1882 6.19268 11.6965 4.70101 9.85482 4.70101Z" fill="#A3A9B5"/>
</g>
<defs>
<clipPath id="clip0_429_37144">
<rect width="20" height="20" fill="white"/>
</clipPath>
</defs>
</svg>
