<svg width="21" height="21" viewBox="0 0 21 21" fill="none" xmlns="http://www.w3.org/2000/svg">
<path fill-rule="evenodd" clip-rule="evenodd" d="M3.64922 4.04781C3.4802 4.1327 3.33594 4.3425 3.33594 4.50332C3.33594 4.67777 3.45727 4.87984 3.6118 4.9627C3.73922 5.03102 4.03309 5.03406 10.5234 5.03406C17.0138 5.03406 17.3077 5.03102 17.4351 4.9627C17.5896 4.87984 17.7109 4.67777 17.7109 4.50332C17.7109 4.3425 17.5667 4.1327 17.3977 4.04781C17.2698 3.98355 16.8607 3.97949 10.5234 3.97949C4.18617 3.97949 3.77707 3.98355 3.64922 4.04781ZM10.2695 5.7307C10.0453 5.87605 8.38172 7.58773 8.35348 7.70219C8.28441 7.98172 8.45145 8.27883 8.71914 8.35273C8.96996 8.42199 9.06969 8.3682 9.53711 7.91164L9.97656 7.48238V10.3466V13.2107L9.53625 12.7805C9.18789 12.4401 9.06781 12.3461 8.96129 12.3305C8.76941 12.3023 8.60312 12.3588 8.47043 12.4973C8.36961 12.6025 8.35547 12.6458 8.35547 12.8488V13.0803L9.27344 14.0012C9.77832 14.5077 10.2427 14.9492 10.3053 14.9824C10.3808 15.0224 10.4781 15.0361 10.594 15.023C10.7624 15.0041 10.8038 14.9683 11.7301 14.042L12.6914 13.0807V12.849C12.6914 12.6458 12.6773 12.6026 12.5764 12.4973C12.4438 12.3588 12.2775 12.3023 12.0856 12.3305C11.9791 12.3461 11.859 12.4401 11.5106 12.7805L11.0703 13.2107V10.3466V7.48238L11.5106 7.91262C11.859 8.25301 11.9791 8.34703 12.0856 8.36266C12.2775 8.39082 12.4438 8.3343 12.5764 8.19582C12.6773 8.09055 12.6914 8.04734 12.6914 7.8441V7.61238L11.7289 6.64992L10.7665 5.6875L10.5766 5.67109C10.4343 5.65883 10.3573 5.67375 10.2695 5.7307ZM3.6118 15.7304C3.45727 15.8133 3.33594 16.0154 3.33594 16.1898C3.33594 16.3506 3.4802 16.5604 3.64922 16.6453C3.77707 16.7096 4.18617 16.7136 10.5234 16.7136C16.8607 16.7136 17.2698 16.7096 17.3977 16.6453C17.5667 16.5604 17.7109 16.3506 17.7109 16.1898C17.7109 16.0154 17.5896 15.8133 17.4351 15.7304C17.3077 15.6621 17.0138 15.6591 10.5234 15.6591C4.03309 15.6591 3.73922 15.6621 3.6118 15.7304Z" fill="#5D6069"/>
</svg>
