<svg width="20" height="20" viewBox="0 0 20 20" fill="none" xmlns="http://www.w3.org/2000/svg">
<g clip-path="url(#clip0_77_10372)">
<path fill-rule="evenodd" clip-rule="evenodd" d="M14.1894 0.761208C14.0766 0.792966 13.9096 0.856091 13.8183 0.901521C13.6187 1.00082 1.1167 13.4733 0.939244 13.7502C0.661158 14.1841 0.628072 14.7713 0.854361 15.2571C0.971744 15.5092 1.09909 15.6464 2.72643 17.2737C4.35378 18.9011 4.49096 19.0284 4.74299 19.1458C5.22885 19.3721 5.816 19.339 6.24991 19.0609C6.46729 18.9216 18.9813 6.40058 19.0924 6.21117C19.3314 5.80398 19.3587 5.21847 19.1598 4.76586C19.0567 4.53148 18.9218 4.38469 17.4049 2.85715C16.5011 1.94699 15.6782 1.13527 15.5762 1.05332C15.2169 0.764724 14.622 0.639412 14.1894 0.761208ZM14.3944 1.85152C14.33 1.88183 11.4795 4.70765 8.0601 8.13117C3.20452 12.9925 1.83753 14.382 1.81823 14.4759C1.80467 14.542 1.81268 14.6474 1.83604 14.7102C1.8992 14.88 5.1426 18.1147 5.30264 18.1675C5.52124 18.2397 5.64717 18.1628 6.17131 17.6374L6.65792 17.1496L6.02753 16.5144C5.50749 15.9904 5.39245 15.854 5.37049 15.7357C5.31385 15.43 5.47706 15.1602 5.76557 15.0825C6.04807 15.0065 6.13733 15.0619 6.79631 15.7221C7.12905 16.0556 7.41932 16.3284 7.44131 16.3284C7.46331 16.3284 7.75292 16.0564 8.08483 15.7239L8.68839 15.1194L8.31245 14.7368C8.01999 14.4391 7.93053 14.3224 7.90963 14.211C7.8478 13.8813 8.10784 13.5549 8.43229 13.5549C8.64167 13.5549 8.76358 13.6313 9.12159 13.9865L9.47374 14.3359L10.0884 13.7203L10.7031 13.1048L10.1144 12.5193C9.79069 12.1973 9.50065 11.8864 9.46991 11.8284C9.39651 11.6899 9.3987 11.4321 9.47448 11.2856C9.59354 11.0554 9.90948 10.9537 10.1829 11.0577C10.2434 11.0807 10.5658 11.3705 10.8993 11.7017L11.5058 12.3039L12.1203 11.6885L12.7347 11.0732L12.3996 10.7418C12.0238 10.37 11.953 10.2618 11.953 10.0582C11.953 9.70972 12.2678 9.4475 12.6091 9.51152C12.7205 9.53242 12.8372 9.62187 13.1349 9.91433L13.5175 10.2903L14.122 9.68672C14.4545 9.3548 14.7265 9.06519 14.7265 9.0432C14.7265 9.02121 14.4536 8.73094 14.1201 8.3982C13.4321 7.71176 13.3803 7.62211 13.496 7.3191C13.5981 7.05176 13.8422 6.91801 14.1296 6.97191C14.2492 6.99433 14.3851 7.10863 14.9117 7.62914L15.5491 8.25918L16.838 6.97152C18.2128 5.59793 18.2689 5.52683 18.1682 5.28398C18.143 5.22297 17.3708 4.42179 16.4524 3.50355C14.6463 1.69777 14.6741 1.72008 14.3944 1.85152Z" fill="white"/>
</g>
<defs>
<clipPath id="clip0_77_10372">
<rect width="20" height="20" fill="white"/>
</clipPath>
</defs>
</svg>
