<svg width="21" height="21" viewBox="0 0 21 21" fill="none" xmlns="http://www.w3.org/2000/svg">
<path fill-rule="evenodd" clip-rule="evenodd" d="M16.7989 3.62578C16.714 3.45676 16.5042 3.3125 16.3434 3.3125C16.1689 3.3125 15.9668 3.43383 15.884 3.58836C15.8157 3.71578 15.8126 4.00965 15.8126 10.5C15.8126 16.9904 15.8157 17.2842 15.884 17.4116C15.9668 17.5662 16.1689 17.6875 16.3434 17.6875C16.5042 17.6875 16.714 17.5432 16.7989 17.3742C16.8631 17.2464 16.8672 16.8373 16.8672 10.5C16.8672 4.16273 16.8631 3.75363 16.7989 3.62578ZM15.116 10.2461C14.9706 10.0218 13.2589 8.35828 13.1445 8.33004C12.865 8.26098 12.5679 8.42801 12.4939 8.6957C12.4247 8.94652 12.4785 9.04625 12.935 9.51367L13.3643 9.95312L10.5001 9.95312L7.63594 9.95312L8.06617 9.51281C8.40656 9.16445 8.50059 9.04437 8.51621 8.93785C8.54437 8.74598 8.48785 8.57969 8.34937 8.44699C8.24414 8.34617 8.20086 8.33203 7.99785 8.33203L7.76637 8.33203L6.84547 9.25C6.33898 9.75488 5.89746 10.2192 5.86426 10.2819C5.82426 10.3574 5.81055 10.4547 5.82363 10.5705C5.84262 10.739 5.87836 10.7804 6.80465 11.7066L7.76594 12.668L7.99766 12.668C8.2009 12.668 8.2441 12.6538 8.34937 12.553C8.48785 12.4203 8.54437 12.254 8.51621 12.0621C8.50059 11.9556 8.40656 11.8355 8.06617 11.4872L7.63594 11.0469L10.5001 11.0469L13.3643 11.0469L12.9341 11.4872C12.5937 11.8355 12.4996 11.9556 12.484 12.0621C12.4559 12.254 12.5124 12.4203 12.6509 12.553C12.7561 12.6538 12.7993 12.668 13.0026 12.668L13.2343 12.668L14.1968 11.7055L15.1592 10.7431L15.1756 10.5532C15.1879 10.4109 15.1729 10.3339 15.116 10.2461ZM5.11625 3.58836C5.0334 3.43383 4.83133 3.3125 4.65687 3.3125C4.49605 3.3125 4.28625 3.45676 4.20137 3.62578C4.13711 3.75363 4.13305 4.16273 4.13305 10.5C4.13305 16.8373 4.13711 17.2464 4.20137 17.3742C4.28625 17.5432 4.49605 17.6875 4.65687 17.6875C4.83133 17.6875 5.0334 17.5662 5.11625 17.4116C5.18457 17.2842 5.18762 16.9904 5.18762 10.5C5.18762 4.00965 5.18457 3.71578 5.11625 3.58836Z" fill="#5D6069"/>
</svg>
