<svg width="21" height="21" viewBox="0 0 21 21" fill="none" xmlns="http://www.w3.org/2000/svg">
<path fill-rule="evenodd" clip-rule="evenodd" d="M3.62578 4.20113C3.45676 4.28602 3.3125 4.49582 3.3125 4.65664C3.3125 4.83109 3.43383 5.03316 3.58836 5.11602C3.71578 5.18434 4.00965 5.18738 10.5 5.18738C16.9904 5.18738 17.2842 5.18434 17.4116 5.11602C17.5662 5.03316 17.6875 4.83109 17.6875 4.65664C17.6875 4.49582 17.5432 4.28602 17.3742 4.20113C17.2464 4.13688 16.8373 4.13281 10.5 4.13281C4.16273 4.13281 3.75363 4.13688 3.62578 4.20113ZM10.2461 5.88402C10.0218 6.02938 8.35828 7.74105 8.33004 7.85551C8.26098 8.13504 8.42801 8.43215 8.6957 8.50605C8.94652 8.57531 9.04625 8.52152 9.51367 8.06496L9.95312 7.6357V10.4999V13.3641L9.51281 12.9338C9.16445 12.5934 9.04437 12.4994 8.93785 12.4838C8.74598 12.4556 8.57969 12.5121 8.44699 12.6506C8.34617 12.7559 8.33203 12.7991 8.33203 13.0021V13.2336L9.25 14.1545C9.75488 14.661 10.2192 15.1025 10.2819 15.1357C10.3574 15.1757 10.4547 15.1895 10.5705 15.1764C10.739 15.1574 10.7804 15.1216 11.7066 14.1954L12.668 13.2341V13.0023C12.668 12.7991 12.6538 12.7559 12.553 12.6506C12.4203 12.5121 12.254 12.4556 12.0621 12.4838C11.9556 12.4994 11.8355 12.5934 11.4872 12.9338L11.0469 13.3641V10.4999V7.6357L11.4872 8.06594C11.8355 8.40633 11.9556 8.50035 12.0621 8.51598C12.254 8.54414 12.4203 8.48762 12.553 8.34914C12.6538 8.24387 12.668 8.20066 12.668 7.99742V7.7657L11.7055 6.80324L10.7431 5.84082L10.5532 5.82441C10.4109 5.81215 10.3339 5.82707 10.2461 5.88402ZM3.58836 15.8837C3.43383 15.9666 3.3125 16.1687 3.3125 16.3431C3.3125 16.5039 3.45676 16.7137 3.62578 16.7986C3.75363 16.8629 4.16273 16.867 10.5 16.867C16.8373 16.867 17.2464 16.8629 17.3742 16.7986C17.5432 16.7137 17.6875 16.5039 17.6875 16.3431C17.6875 16.1687 17.5662 15.9666 17.4116 15.8837C17.2842 15.8154 16.9904 15.8124 10.5 15.8124C4.00965 15.8124 3.71578 15.8154 3.58836 15.8837Z" fill="#5D6069"/>
</svg>
